
<svg xmlns="http://www.w3.org/2000/svg" xml:space="preserve" width="45" height="45" style="shape-rendering:geometricPrecision; text-rendering:geometricPrecision; image-rendering:optimizeQuality; fill-rule:evenodd; clip-rule:evenodd"
viewBox="0 0 6.82666 6.82666"
 xmlns:xlink="http://www.w3.org/1999/xlink">
 <defs>
  <style type="text/css">
   <![CDATA[
    .fil2 {fill:none}
    .fil0 {fill:none}
    .fil1 {fill:#FFFFFE;fill-rule:nonzero}
   ]]>
  </style>
 </defs>
 <rect class="fil0" width="6.82666" height="6.82666"/>
 <g id="Layer_x0020_1">
  <metadata id="CorelCorpID_0Corel-Layer"/>
  <path class="fil1" d="M0.853331 2.81578c0,-0.262567 0.106429,-0.500283 0.278504,-0.672354 0.172075,-0.172075 0.409791,-0.278508 0.672354,-0.278508 0.262559,0 0.500276,0.106433 0.672354,0.278508 0.0159764,0.0159764 0.0313858,0.0325197 0.0461969,0.0495984 -0.0185709,0.0109528 -0.0358622,0.0242992 -0.0514016,0.0398386 -0.0200984,0.0200984 -0.0365236,0.0431181 -0.0488543,0.0680669 -0.0156417,-0.0187677 -0.0321142,-0.036815 -0.0493701,-0.0540748 -0.145594,-0.145591 -0.346744,-0.235646 -0.568925,-0.235646 -0.222185,0 -0.423331,0.0900512 -0.568925,0.235646 -0.145591,0.145591 -0.235646,0.34674 -0.235646,0.568925 0,0.222181 0.0900551,0.423331 0.235646,0.568921 0.145594,0.145594 0.34674,0.235646 0.568925,0.235646 0.222181,0 0.423331,-0.0900551 0.568925,-0.235646 0.00778346,-0.00778346 0.0153937,-0.0157283 0.0228543,-0.0238268l0 0.199181c-0.162406,0.129299 -0.368071,0.206583 -0.59178,0.206583 -0.262563,0 -0.50028,-0.106433 -0.672354,-0.278508 -0.172075,-0.172075 -0.278504,-0.409791 -0.278504,-0.67235z"/>
  <path class="fil1" d="M1.21904 2.81578c0,-0.255327 0.0611339,-0.487787 0.159965,-0.657213 0.105831,-0.181429 0.255925,-0.29365 0.425181,-0.29365 0.169256,0 0.319346,0.11222 0.425181,0.29365 0.0988268,0.169425 0.159961,0.401886 0.159961,0.657213 0,0.255323 -0.0611339,0.487783 -0.159961,0.657209 -0.105835,0.181429 -0.255925,0.29365 -0.425181,0.29365 -0.169256,0 -0.31935,-0.11222 -0.425181,-0.29365 -0.0988307,-0.169425 -0.159965,-0.401886 -0.159965,-0.657209zm0.286248 -0.584067c-0.0864685,0.148232 -0.139957,0.354638 -0.139957,0.584067 0,0.229425 0.0534882,0.435831 0.139957,0.584063 0.0794724,0.136236 0.185386,0.220504 0.298898,0.220504 0.113512,0 0.219425,-0.0842677 0.298894,-0.220504 0.0864724,-0.148232 0.139961,-0.354638 0.139961,-0.584063 0,-0.229429 -0.0534882,-0.435835 -0.139961,-0.584067 -0.0794685,-0.136236 -0.185382,-0.220504 -0.298894,-0.220504 -0.113512,0 -0.219425,0.0842677 -0.298898,0.220504z"/>
  <path class="fil1" d="M1.73104 3.6935c0,0.0403937 0.032752,0.0731457 0.0731457,0.0731457 0.0403937,0 0.0731457,-0.032752 0.0731457,-0.0731457l0 -1.75543c0,-0.0403937 -0.032752,-0.0731457 -0.0731457,-0.0731457 -0.0403937,0 -0.0731457,0.032752 -0.0731457,0.0731457l0 1.75543z"/>
  <path class="fil1" d="M1.08275 3.24997c-0.0359724,0.0181457 -0.0504291,0.0620276 -0.0322835,0.098 0.0181457,0.0359764 0.0620236,0.0504331 0.098,0.0322874 0.0826732,-0.0415906 0.182972,-0.0743228 0.293654,-0.0967283 0.11178,-0.0226339 0.234909,-0.0346929 0.362071,-0.0346929 0.132748,0 0.261551,0.0133268 0.378039,0.038189 0.0777638,0.0165984 0.149862,0.0381811 0.21374,0.0642087l0 -0.155921c-0.0573189,-0.0202244 -0.118862,-0.0373583 -0.183457,-0.0511417 -0.126965,-0.0270984 -0.266114,-0.041622 -0.408323,-0.041622 -0.134906,0 -0.267799,0.013252 -0.390646,0.038122 -0.123953,0.0250945 -0.236917,0.0620787 -0.330795,0.109299z"/>
  <path class="fil1" d="M2.45095 2.25583c-0.0762913,0.0371811 -0.16772,0.0671496 -0.268717,0.0887047 -0.116488,0.0248622 -0.245291,0.038189 -0.378043,0.038189 -0.127161,0 -0.250295,-0.0120591 -0.362075,-0.0346929 -0.110681,-0.0224055 -0.210976,-0.0551378 -0.293654,-0.0967283 -0.0359724,-0.0181457 -0.0798543,-0.00368898 -0.098,0.0322874 -0.0181417,0.0359724 -0.00368898,0.0798543 0.0322874,0.098 0.093878,0.0472205 0.206843,0.0842047 0.330795,0.109299 0.122843,0.0248701 0.255736,0.038122 0.390646,0.038122 0.142217,0 0.281362,-0.0145236 0.408331,-0.041622 0.0645906,-0.0137835 0.126134,-0.0309134 0.183449,-0.0511378l0 -0.0217638c0,-0.0579764 0.0195433,-0.113634 0.0549803,-0.158657z"/>
  <path class="fil1" d="M0.926472 2.74264c-0.0403937,0 -0.0731417,0.032748 -0.0731417,0.0731457 0,0.0403937 0.032748,0.0731417 0.0731417,0.0731417l1.4695 0 0 -0.146287 -1.4695 0z"/>
  <path class="fil1" d="M2.53562 2.27026l3.21828 0c0.0589094,0 0.106669,0.0477598 0.106669,0.106669l0 2.26743c0,0.0589094 -0.0477598,0.106669 -0.106669,0.106669l-3.21828 0c-0.0589094,0 -0.106669,-0.0477598 -0.106669,-0.106669l0 -2.26743c0,-0.0589094 0.0477598,-0.106669 0.106669,-0.106669zm3.11161 0.213339l-3.00494 0 0 2.05409 3.00494 0 0 -2.05409z"/>
  <path class="fil1" d="M2.31619 4.85506c-0.0589094,0 -0.106669,0.0477598 -0.106669,0.106669 0,0.0589094 0.0477598,0.106669 0.106669,0.106669l3.65714 0c0.0589094,0 0.106669,-0.0477598 0.106669,-0.106669 0,-0.0589094 -0.0477598,-0.106669 -0.106669,-0.106669l-3.65714 0z"/>
  <rect class="fil2" width="6.82666" height="6.82666"/>
 </g>
</svg>
